<?xml version="1.0" encoding="UTF-8"?>
<!-- Created with Inkscape (http://www.inkscape.org/) -->
<svg id="SVGRoot" width="512px" height="512px" version="1.1" viewBox="0 0 512 512" xmlns="http://www.w3.org/2000/svg">
 <path d="m256 6.3516c-137.88-4.791e-4 -249.65 111.77-249.65 249.65-4.805e-4 137.88 111.77 249.65 249.65 249.65 137.88 4.8e-4 249.65-111.77 249.65-249.65 4.8e-4 -137.88-111.77-249.65-249.65-249.65zm-81.482 77.793h163.95c9.8106 0 16.795 8.3984 16.795 18.209v10.07 10.24h17.354c8.1291 0 22.646 4.3204 22.646 22.887v28.156c0 31.613-21.333 58.265-50.787 66.055-12.614 25.355-34.329 44.628-60.967 52.535 4.3542 1.9615 7.3945 6.291 7.3945 11.328 0 2.6875-0.87119 5.7099-2.3379 7.1914h0.48438c6.6935 0 12.169 5.9255 12.553 11.852h16.215c4.3482 0 8.4361 1.662 11.512 4.7539 3.0771 3.0934 4.7586 7.1498 4.7363 11.498l-0.26953 53.379h6.0332c9.615 0 16.914 7.7947 16.914 17.408v0.74024c0 9.6135-7.3005 17.408-16.914 17.408h-168.15c-9.6135 0-17.9-7.7947-17.9-17.408v-0.74024c0-9.6135 8.2868-17.408 17.9-17.408h7.5156l-0.27344-53.359c-0.02222-4.3468 1.6592-8.4237 4.7363-11.516 3.0771-3.0934 7.1654-4.7559 11.514-4.7559h16.217c0.38371-5.926 5.8592-11.852 12.553-11.852h0.48438c-1.4667-1.4815-2.3555-4.5054-2.3555-7.1914 0-5.0357 3.0228-9.3568 7.377-11.318-26.638-7.9083-48.812-27.186-61.426-52.539-29.452-7.7898-51.279-34.448-51.279-66.061v-29.176c0-17.76 14.602-21.867 22.254-21.867h17.746v-10.24-10.07c0-9.8106 7.9687-18.209 17.779-18.209zm81.977 39.705-11.648 35.852h-37.697l30.498 22.105-11.65 35.801 30.498-22.156 30.498 22.156-11.65-35.801 30.498-22.105h-37.697l-11.648-35.852zm-113.09 25.48v30.811c0 15.097 6.4224 28.737 16.664 38.404-2.24-8.7365-3.3301-17.914-3.3301-27.387v-41.828h-13.334zm211.86 0v41.828c0 9.4743-1.0905 18.651-3.332 27.389 10.245-9.6669 16.666-23.308 16.666-38.406v-30.811h-13.334z" style="paint-order:normal"/>
 <g transform="matrix(.65829 0 0 .65829 87.479 87.478)"></g>
 <g transform="matrix(7.0698 0 0 7.0698 -322.25 121.06)"></g>
 <g transform="matrix(11.914 0 0 11.914 -358.01 64.421)"></g>
 <g transform="matrix(1.4815 0 0 1.4815 84.144 84.144)"></g>
</svg>
