<?xml version="1.0" encoding="UTF-8"?>
<!-- Created with Inkscape (http://www.inkscape.org/) -->
<svg id="SVGRoot" width="512px" height="512px" version="1.1" viewBox="0 0 512 512" xmlns="http://www.w3.org/2000/svg">
 <path d="m256 6.3516c-137.88-4.791e-4 -249.65 111.77-249.65 249.65-4.805e-4 137.88 111.77 249.65 249.65 249.65 137.88 4.8e-4 249.65-111.77 249.65-249.65 4.8e-4 -137.88-111.77-249.65-249.65-249.65zm-3.1641 132.75c1.2108 0 2.4205 0.20614 3.5762 0.61718l180.75 63.754c1.0366 0.36935 1.7754 1.3701 1.7754 2.502 0.01192 1.1319-0.65427 2.1457-1.7266 2.5508v87.605c4.73 2.3352 8.0527 7.0538 8.0527 12.701 1e-5 5.8619-3.5858 10.949-8.709 13.105 5.0994 10.091 8.6856 30.798 8.6856 36.707 0 7.8754-6.3982 14.262-14.262 14.262-7.8754 0-14.273-6.3863-14.273-14.262 0-5.9095 3.5743-26.616 8.6856-36.707-5.1113-2.1803-8.6856-7.267-8.6856-13.129 0-5.6117 3.3249-10.366 8.043-12.689v-82.77l-168.02 65.434c-2.5139 0.96506-5.2908 0.96506-7.8047 0l-180.48-70.246c-1.0485-0.40507-1.7287-1.4189-1.7168-2.5508 0.011914-1.1319 0.72673-2.1326 1.7871-2.502l180.73-63.766c1.1616-0.41103 2.3732-0.61718 3.584-0.61718zm-127.86 104.81 123.93 48.266c2.5139 0.97697 5.2888 0.97697 7.8027 0l123.98-48.266c-0.02346 20.219-0.02539 44.013-0.02539 47.766 0 37.661-56.628 68.256-127.83 70.174-71.212-1.9182-127.84-32.548-127.84-70.174 0-3.7769-0.01152-27.559-0.02343-47.766z" style="paint-order:normal"/>
 <g transform="matrix(.65829 0 0 .65829 87.479 87.478)"></g>
 <g transform="matrix(7.0698 0 0 7.0698 -322.25 121.06)"></g>
 <g transform="matrix(11.914 0 0 11.914 -358.01 64.421)"></g>
</svg>
