<?xml version="1.0" encoding="UTF-8"?>
<svg id="SVGRoot" width="512px" height="512px" version="1.1" viewBox="0 0 512 512" xmlns="http://www.w3.org/2000/svg">
 <path d="m256 6.3516c-137.88-4.791e-4 -249.65 111.77-249.65 249.65-4.805e-4 137.88 111.77 249.65 249.65 249.65 137.88 4.8e-4 249.65-111.77 249.65-249.65 4.8e-4 -137.88-111.77-249.65-249.65-249.65zm-1.5234 87.973c60.256 0 85.008 25.544 86.025 26.633l-0.24023 0.22461h0.16797v44.182h-19.207v-39.768c-10.442-6.4548-31.567-15.895-66.746-15.895-33.723 0-51.539 8.4352-60.037 14.438v41.225h-19.209v-43.764l-0.19141-0.13477c0.02128-0.03535 0.12071-0.17641 0.19141-0.27539v-0.01367h0.00781c1.9442-2.7997 20.431-26.852 79.238-26.852zm-121.42 90.254h276.62v46.096 19.209 7.082c-17.936 16.713-63.105 51.35-135.42 59.346v-2.0723c0-10.067-8.1684-18.24-18.25-18.24-10.075 0-18.246 8.1728-18.246 18.24v3.6484c-81.784-1.7816-120.94-39.216-135.44-58.021v-9.9766-19.207-15.371c0-16.982 13.764-30.732 30.738-30.732zm276.62 94.602v87.891c0 16.968-13.764 30.734-30.725 30.734h-276.62v-113.07c22.609 21.704 64.71 48.025 135.43 49.488v5.9394c0 10.089 8.1716 18.254 18.246 18.254 10.075 0 18.248-8.1652 18.248-18.254v-7.2188c65.983-6.7305 110.85-34.034 135.42-53.766zm-153.68 31.857c4.9065 0 8.8945 3.9861 8.8945 8.8926v17.088c0 4.9135-3.9881 8.8945-8.8945 8.8945-4.9135 0-8.8926-3.9881-8.8926-8.8945v-17.088c0-4.9135 3.979-8.8926 8.8926-8.8926z" style="paint-order:normal"/>
 <g transform="matrix(.65829 0 0 .65829 87.479 87.478)"></g>
 <g transform="matrix(7.0698 0 0 7.0698 -322.25 121.06)"></g>
</svg>
