<?xml version="1.0" encoding="UTF-8"?>
<svg enable-background="new 0 0 194.818 194.818" version="1.1" viewBox="0 0 194.82 194.82" xml:space="preserve" xmlns="http://www.w3.org/2000/svg">
<g transform="matrix(.97479 0 0 .97479 2.4562 2.4562)">
	<path d="m185.82 2.161h-57.04c-4.971 0-9 4.029-9 9s4.029 9 9 9h35.312l-86.3 86.3c-3.515 3.515-3.515 9.213 0 12.728 1.758 1.757 4.061 2.636 6.364 2.636s4.606-0.879 6.364-2.636l86.3-86.3v35.313c0 4.971 4.029 9 9 9s9-4.029 9-9v-57.04c0-4.972-4.029-9.001-9-9.001z"/>
	<path d="m149 77.201c-4.971 0-9 4.029-9 9v88.456h-122v-122h93.778c4.971 0 9-4.029 9-9s-4.029-9-9-9h-102.78c-4.971 0-9 4.029-9 9v140c0 4.971 4.029 9 9 9h140c4.971 0 9-4.029 9-9v-97.456c0-4.971-4.029-9-9-9z"/>
</g>















</svg>
