<?xml version="1.0" encoding="UTF-8"?>
<svg id="SVGRoot" width="512px" height="512px" version="1.1" viewBox="0 0 512 512" xmlns="http://www.w3.org/2000/svg">
 <path d="m256 6.3516a249.65 249.65 0 0 0-249.65 249.65 249.65 249.65 0 0 0 249.65 249.65 249.65 249.65 0 0 0 249.65-249.65 249.65 249.65 0 0 0-249.65-249.65zm-168.66 162.66h158.2v180.8h-158.2c-7.5145 0-13.561-6.046-13.561-13.561v-153.68c0-7.5145 6.046-13.561 13.561-13.561zm176.28 0h158.2c7.5145 0 13.561 6.046 13.561 13.561v153.68c0 7.5145-6.046 13.561-13.561 13.561h-158.2v-180.8zm-117.63 35.539c-2.938 0-5.4809 1.8077-6.4414 4.5762l-32.486 95.543c-1.469 4.407 1.8064 8.9824 6.4394 8.9824h12.939c2.9945 0 5.6506-2.0345 6.498-4.916l5.1406-17.967h34.014l5.3105 18.023c0.85082 2.8798 3.4952 4.8564 6.498 4.8594h12.938c4.6895 0 7.9104-4.5754 6.4414-8.9824l-32.486-95.543c-0.96051-2.712-3.5599-4.5762-6.4414-4.5762h-18.363zm203.51 0.62109c-3.729 0-6.7793 3.0522-6.7793 6.7812v9.0391h-36.16c-3.729 0-6.7793 3.0503-6.7793 6.7793v9.041c0 3.729 3.0503 6.7793 6.7793 6.7793h64.58c-3.503 8.0796-9.3236 16.385-16.951 24.408-3.729-3.8985-7.0051-7.8536-9.8301-11.809-2.034-2.8815-5.99-3.7279-9.041-1.9199l-4.123 2.4297-3.6738 2.2031c-3.3335 1.9775-4.3499 6.4416-2.0898 9.6621 3.4465 4.9155 7.4017 9.7735 11.865 14.52-4.5765 3.5595-9.4916 6.9494-14.746 10.17-3.164 1.921-4.1811 5.9903-2.373 9.1543l4.4629 7.8535c1.921 3.3335 6.1585 4.4052 9.4356 2.4277 7.1755-4.407 13.843-9.1528 20.002-14.068 6.1585 4.972 12.881 9.6613 20 14.068 3.277 1.9775 7.5146 0.90578 9.4356-2.4277l4.4629-7.8535c1.808-3.2205 0.79111-7.2333-2.3164-9.1543-5.085-3.1075-10-6.5539-14.746-10.17 11.865-12.713 20.226-26.16 24.125-39.494h6.4414c3.729 0 6.7812-3.0503 6.7812-6.7793v-9.041c0-3.729-3.0522-6.7793-6.7812-6.7793h-36.16v-9.0391c0-3.729-3.0503-6.7812-6.7793-6.7812h-9.041zm-194.47 24.295h0.28125s2.4307 11.921 4.4082 18.758l6.1582 21.188h-21.527l6.2715-21.188c1.9775-6.8365 4.4082-18.758 4.4082-18.758z" style="paint-order:normal"/>
</svg>
