<?xml version="1.0" encoding="UTF-8"?>
<svg enable-background="new 0 0 53.942 53.942" version="1.1" viewBox="0 0 53.942 53.942" xml:space="preserve" xmlns="http://www.w3.org/2000/svg">
<path d="m52.854 40.639c-1.9692-3.7226-8.8074-7.7591-9.1085-7.9356-0.87868-0.50014-1.7956-0.76492-2.6537-0.76492-1.2759 0-2.3203 0.58448-2.9528 1.6475-1.0003 1.1964-2.2408 2.5949-2.5419 2.8116-2.3301 1.5808-4.1541 1.4014-6.1723-0.61684l-11.264-11.265c-2.0055-2.0055-2.1898-3.8521-0.61978-6.1694 0.21967-0.30303 1.6181-1.5446 2.8145-2.5458 0.76296-0.45405 1.2866-1.1288 1.5161-1.9564 0.30499-1.1013 0.08041-2.3968-0.6394-3.6589-0.16966-0.29028-4.2081-7.1295-7.9287-9.0977-0.69431-0.36775-1.4769-0.56192-2.2614-0.56192-1.2925 0-2.5086 0.50406-3.4225 1.4171l-2.4889 2.488c-3.9364 3.9354-5.3613 8.3965-4.2375 13.259 0.93752 4.0521 3.6697 8.3641 8.1219 12.815l14.421 14.421c5.6349 5.6349 11.007 8.4926 15.967 8.4926h9.8e-4c3.6481 0 7.0491-1.5504 10.106-4.6072l2.488-2.488c1.5122-1.5112 1.8554-3.7962 0.85612-5.684z" stroke-width=".98067"/>















</svg>
