<?xml version="1.0" encoding="UTF-8"?>
<svg id="SVGRoot" width="512px" height="512px" version="1.1" viewBox="0 0 512 512" xmlns="http://www.w3.org/2000/svg">
 <path d="m256 6.3516c-137.88-4.791e-4 -249.65 111.77-249.65 249.65-4.805e-4 137.88 111.77 249.65 249.65 249.65 137.88 4.8e-4 249.65-111.77 249.65-249.65 4.8e-4 -137.88-111.77-249.65-249.65-249.65zm79.076 81.127c6.205 0 11.234 5.0294 11.234 11.234v18.41c5.2544 1.2336 10.187 3.3061 14.645 6.0781l13.029-13.027c4.3875-4.3875 11.502-4.3875 15.889 0 4.3875 4.3875 4.3875 11.501 0 15.889l-13.029 13.029c2.772 4.4572 4.8445 9.3894 6.0781 14.643h18.412c6.2044-1e-5 11.234 5.0294 11.234 11.234s-5.03 11.234-11.234 11.234h-18.412c-1.2336 5.2544-3.3061 10.187-6.0781 14.645l13.029 13.027c4.3875 4.3875 4.3875 11.501 0 15.889s-11.502 4.3868-15.889 0l-13.029-13.029c-4.4579 2.772-9.3894 4.8445-14.643 6.0781v18.412c0 6.205-5.0313 11.236-11.236 11.236s-11.234-5.032-11.234-11.236v-18.412c-5.2538-1.2336-10.185-3.3061-14.643-6.0781l-13.029 13.027c-4.3888 4.3875-11.502 4.3875-15.889 0-4.3875-4.3875-4.3875-11.5 0-15.887l13.029-13.027c-2.772-4.4579-4.8445-9.3914-6.0781-14.645h-18.412c-6.205 0-11.234-5.0294-11.234-11.234s5.03-11.234 11.234-11.234h18.412c1.2336-5.2538 3.3061-10.185 6.0781-14.643l-13.029-13.029c-4.3875-4.3875-4.3875-11.499 0-15.887s11.502-4.3875 15.889 0l13.027 13.027c4.4572-2.772 9.3914-4.8445 14.645-6.0781v-18.412c0-6.205 5.03-11.234 11.234-11.234zm0 65.785c-6.4538 0-11.705 5.2506-11.705 11.705 0 6.4538 5.2512 11.705 11.705 11.705 6.4552 0 11.706-5.2506 11.705-11.705 0-6.4538-5.2506-11.705-11.705-11.705zm-144.21 11.295c6.205 0 11.236 5.03 11.236 11.234v24.207c7.1799 1.4285 14.133 4.2416 20.434 8.4394l17.1-17.098c4.3875-4.3875 11.502-4.3875 15.889 0 4.3875 4.3875 4.3875 11.501 0 15.889l-17.098 17.098c4.1979 6.3005 7.0103 13.256 8.4394 20.436h24.207c6.205 0 11.234 5.0294 11.234 11.234s-5.03 11.234-11.234 11.234h-24.207c-1.4285 7.1806-4.2416 14.135-8.4394 20.436l17.1 17.1c4.3875 4.3881 4.3875 11.502 0 15.889-4.3875 4.3881-11.502 4.3875-15.889 0l-17.1-17.1c-6.3005 4.1979-13.254 7.0103-20.434 8.4394v24.207c0 6.205-5.0313 11.236-11.236 11.236-6.205 0-11.234-5.032-11.234-11.236v-24.207c-7.1799-1.4285-14.135-4.2416-20.436-8.4394l-17.098 17.1c-4.3875 4.3881-11.502 4.3875-15.889 0-4.3875-4.3875-4.3875-11.501 0-15.889l17.098-17.1c-4.1992-6.3005-7.0103-13.254-8.4394-20.434h-24.207c-6.205 0-11.234-5.0313-11.234-11.236s5.03-11.234 11.234-11.234h24.205c1.4291-7.1799 4.2416-14.135 8.4395-20.436l-17.098-17.098c-4.3875-4.3875-4.3875-11.501 0-15.889s11.502-4.3875 15.889 0l17.098 17.098c6.3005-4.1979 13.256-7.0103 20.436-8.4394v-24.207c0-6.205 5.03-11.234 11.234-11.234zm-0.00195 71.779c-5.048 0.00148-10.095 1.9169-13.918 5.7402-7.6598 7.6598-7.6453 20.198 0 27.844 7.6592 7.6592 20.198 7.6453 27.844 0 7.6776-7.677 7.6763-20.167 0-27.844-3.8296-3.8292-8.8778-5.7417-13.926-5.7402zm144.21 33.201c6.205 0 11.236 5.032 11.236 11.236v18.412c5.2544 1.2336 10.185 3.3061 14.643 6.0781l13.029-13.029c4.3875-4.3875 11.502-4.3868 15.889 0 4.3875 4.3875 4.3875 11.502 0 15.889l-13.029 13.027c2.772 4.4579 4.8445 9.3914 6.0781 14.645h18.412c6.205 0 11.234 5.0294 11.234 11.234s-5.03 11.236-11.234 11.236h-18.412c-1.2336 5.2538-3.3061 10.185-6.0781 14.643l13.027 13.027c4.3875 4.3875 4.3875 11.501 0 15.889-4.3875 4.3881-11.502 4.3875-15.889 0l-13.027-13.029c-4.4579 2.772-9.3914 4.8445-14.645 6.0781v18.412c0 6.205-5.0294 11.234-11.234 11.234s-11.234-5.03-11.234-11.234v-18.41c-5.2538-1.2336-10.187-3.3061-14.645-6.0781l-13.027 13.027c-4.3875 4.3875-11.502 4.3875-15.889 0-4.3875-4.3875-4.3875-11.501 0-15.889l13.027-13.027c-2.772-4.4573-4.8445-9.3895-6.0781-14.643h-18.41c-6.205 0-11.236-5.0313-11.236-11.236s5.032-11.234 11.236-11.234h18.41c1.2336-5.2544 3.3061-10.187 6.0781-14.645l-13.027-13.027c-4.3875-4.3875-4.3875-11.501 0-15.889s11.502-4.3868 15.889 0l13.029 13.029c4.4586-2.772 9.3894-4.8445 14.643-6.0781v-18.412c0-6.205 5.0294-11.236 11.234-11.236zm0.00195 65.787c-6.4538 0-11.705 5.2512-11.705 11.705s5.2512 11.705 11.705 11.705c6.4552 0 11.706-5.2506 11.705-11.705 0-6.4538-5.2506-11.705-11.705-11.705z" style="paint-order:normal"/>
 <g transform="matrix(.65829 0 0 .65829 87.479 87.478)"></g>
</svg>
