<?xml version="1.0" encoding="UTF-8"?>
<svg enable-background="new 0 0 300 300" version="1.1" viewBox="0 0 300 300" xml:space="preserve" xmlns="http://www.w3.org/2000/svg">
<g transform="matrix(.99206 0 0 .99206 1.1912 1.1912)">
	
		<path d="m150 0c-82.839 0-150 67.161-150 150s67.156 150 150 150 150-67.163 150-150-67.164-150-150-150zm-1.245 218.47c-12.893 0-23.342-11.082-23.342-24.764h46.685c-1e-3 13.682-10.453 24.764-23.343 24.764zm21.662-37.773h-43.326c-1.167-12.753-31.476-23.871-31.476-55.747 0-33.999 25.425-52.027 53.135-52.709h3e-3 3e-3c27.712 0.685 53.135 18.71 53.135 52.709 2e-3 31.876-30.307 42.994-31.474 55.747z"/>
	
</g>















</svg>
