<?xml version="1.0" encoding="UTF-8"?>
<svg width="92px" height="92px" enable-background="new 0 0 92 92" version="1.1" viewBox="0 0 92 92" xml:space="preserve" xmlns="http://www.w3.org/2000/svg">
<path id="XMLID_1666_" d="m46 1.7448c-24.437 0-44.255 19.819-44.255 44.255s19.819 44.255 44.255 44.255 44.255-19.819 44.255-44.255-19.819-44.255-44.255-44.255zm3.5597 80.621c-0.19241 0-0.38483 0-0.67345 0.09621v-20.877c5.0028-0.09621 9.5245-0.19241 13.661-0.48103-3.6559 11.256-10.487 18.76-12.988 21.262zm-7.1193 0c-2.5976-2.5976-9.3321-10.102-12.988-21.262 4.0407 0.28862 8.6586 0.48103 13.661 0.48103v20.877c-0.19241 0-0.38483-0.09621-0.67345-0.09621zm-32.999-36.366c0-2.4052 0.28862-4.8103 0.67345-7.1193 2.1166-0.38483 6.1572-0.96207 11.833-1.5393-0.48104 2.79-0.76966 5.6762-0.76966 8.7548 0 3.0786 0.28862 5.9648 0.67345 8.6586-5.58-0.57724-9.7169-1.1545-11.833-1.5393-0.28862-2.4052-0.57724-4.8103-0.57724-7.2155zm17.606 0c0-3.271 0.38483-6.3497 0.96207-9.2359 4.4255-0.28862 9.4283-0.57724 15.104-0.57724v19.626c-5.58-0.096207-10.679-0.28862-15.201-0.67345-0.48104-2.79-0.86586-5.8686-0.86586-9.1397zm22.416-36.366c2.5976 2.5976 9.2359 10.294 12.988 21.262-4.0407-0.28862-8.5624-0.48103-13.565-0.48103v-20.877c0.19241 0 0.38483 0.096207 0.57724 0.096207zm-6.3497-0.096207v20.877c-5.0028 0.09621-9.5245 0.19241-13.565 0.48103 3.6559-10.968 10.39-18.664 12.892-21.262 0.28862 0 0.48104-0.096207 0.67345-0.096207zm5.7724 46.276v-19.626c5.58 0.09621 10.679 0.28862 15.104 0.57724 0.57724 2.8862 0.96207 5.9648 0.96207 9.2359s-0.28862 6.3497-0.86586 9.2359c-4.4255 0.28862-9.5245 0.48104-15.201 0.57724zm21.069-18.472c5.6762 0.57724 9.7169 1.1545 11.833 1.5393 0.48104 2.309 0.76966 4.7141 0.76966 7.1193s-0.28862 4.8103-0.67345 7.1193c-2.1166 0.38483-6.1572 0.96207-11.833 1.5393 0.48104-2.79 0.67345-5.6762 0.67345-8.7548 0-2.8862-0.28862-5.8686-0.76966-8.5624zm10.102-4.6179c-2.6938-0.38483-6.5421-0.86586-11.449-1.3469-2.309-8.2738-6.3497-14.912-9.7169-19.626 9.7169 3.6559 17.413 11.352 21.166 20.973zm-46.949-20.973c-3.4634 4.6179-7.4079 11.256-9.7169 19.53-4.8103 0.38483-8.6586 0.96207-11.449 1.3469 3.7521-9.5245 11.545-17.221 21.166-20.877zm-21.166 47.526c2.6938 0.38483 6.5421 0.86586 11.352 1.3469 2.309 8.2738 6.1572 14.912 9.6207 19.53-9.6207-3.7521-17.221-11.352-20.973-20.877zm47.141 20.877c3.4634-4.6179 7.3117-11.16 9.6207-19.434 4.8103-0.38483 8.6586-0.96207 11.352-1.3469-3.7521 9.4283-11.352 17.029-20.973 20.781z" stroke-width=".96207"/>
</svg>
